<svg width="53" height="41" viewBox="0 0 53 41" fill="none" xmlns="http://www.w3.org/2000/svg">
<path d="M28 39.5389L35 32.0389C29.5639 27.4751 26.3543 28.1891 20.5 32.0389L28 39.5389Z" fill="#F0EBFF"/>
<path d="M17 27.539L13 23.039C18.2664 19.3091 21.3529 17.5314 28 17.0391C34.7128 17.241 37.9265 18.7383 43 23.039L39.5 27.539C35.8576 24.4199 33.3649 23.4667 28 23.039C23.2099 23.4579 20.749 24.2993 17 27.539Z" fill="#F0EBFF"/>
<path d="M8.5 19.0391C16.2773 13.2169 20.6085 10.4356 28 11.0391C37.475 11.7894 41.2399 13.9958 47 19.0391L51.5 14.0391C43.4644 7.63035 38.4458 5.3385 28 5.03906C18.8103 4.63213 13.8155 7.38894 5 14.0391L8.5 19.0391Z" fill="#F0EBFF"/>
<path d="M20.5 32.0389C26.3543 28.1891 29.5639 27.4751 35 32.0389L39.5 27.539C35.8576 24.4199 33.3649 23.4667 28 23.039C23.2099 23.4579 20.749 24.2993 17 27.539L20.5 32.0389Z" fill="#F0EBFF"/>
<path d="M13 23.039C18.2664 19.3091 21.3529 17.5314 28 17.0391C34.7128 17.241 37.9265 18.7383 43 23.039L47 19.0391C41.2399 13.9958 37.475 11.7894 28 11.0391C20.6085 10.4356 16.2773 13.2169 8.5 19.0391L13 23.039Z" fill="#F0EBFF"/>
<path d="M35 32.0389L28 39.5389L20.5 32.0389M35 32.0389C29.5639 27.4751 26.3543 28.1891 20.5 32.0389M35 32.0389L39.5 27.539M20.5 32.0389L17 27.539M17 27.539L13 23.039M17 27.539C20.749 24.2993 23.2099 23.4579 28 23.039C33.3649 23.4667 35.8576 24.4199 39.5 27.539M13 23.039C18.2664 19.3091 21.3529 17.5314 28 17.0391C34.7128 17.241 37.9265 18.7383 43 23.039M13 23.039L8.5 19.0391M43 23.039L39.5 27.539M43 23.039L47 19.0391M8.5 19.0391C16.2773 13.2169 20.6085 10.4356 28 11.0391C37.475 11.7894 41.2399 13.9958 47 19.0391M8.5 19.0391L5 14.0391C13.8155 7.38894 18.8103 4.63213 28 5.03906C38.4458 5.3385 43.4644 7.63035 51.5 14.0391L47 19.0391" stroke="#F0EBFF"/>
<path d="M31 28L24 35.5L16.5 28C22.3543 24.1501 25.5639 23.4362 31 28Z" stroke="#7859CF" stroke-width="1.2"/>
<path d="M9 19.0001L13 23.5001C16.749 20.2604 19.2099 19.419 24 19.0001C29.3649 19.4277 31.8576 20.3809 35.5 23.5001L39 19.0001C33.9265 14.6993 30.7128 13.2021 24 13.0001C17.3529 13.4925 14.2664 15.2701 9 19.0001Z" stroke="#7859CF" stroke-width="1.2"/>
<path d="M24 7.00012C16.6085 6.39663 12.2773 9.17792 4.5 15.0001L1 10.0001C9.8155 3.35 14.8103 0.593187 24 1.00012C34.4458 1.29956 39.4644 3.59141 47.5 10.0001L43 15.0001C37.2399 9.95684 33.475 7.75048 24 7.00012Z" stroke="#7859CF" stroke-width="1.2"/>
</svg>
