<svg width="170" height="36" viewBox="0 0 170 36" fill="none" xmlns="http://www.w3.org/2000/svg">
<path d="M140.08 26.336C138.752 26.336 137.52 26.128 136.384 25.712C135.248 25.28 134.264 24.672 133.432 23.888C132.616 23.104 131.976 22.184 131.512 21.128C131.048 20.056 130.816 18.88 130.816 17.6C130.816 16.32 131.048 15.152 131.512 14.096C131.976 13.024 132.624 12.096 133.456 11.312C134.288 10.528 135.272 9.928 136.408 9.512C137.56 9.08 138.816 8.864 140.176 8.864C141.76 8.864 143.176 9.128 144.424 9.656C145.672 10.184 146.704 10.944 147.52 11.936L144.496 14.672C143.92 14.048 143.296 13.584 142.624 13.28C141.968 12.96 141.232 12.8 140.416 12.8C139.696 12.8 139.04 12.912 138.448 13.136C137.856 13.36 137.352 13.688 136.936 14.12C136.52 14.536 136.192 15.04 135.952 15.632C135.728 16.208 135.616 16.864 135.616 17.6C135.616 18.304 135.728 18.952 135.952 19.544C136.192 20.136 136.52 20.648 136.936 21.08C137.352 21.496 137.848 21.824 138.424 22.064C139.016 22.288 139.664 22.4 140.368 22.4C141.072 22.4 141.76 22.288 142.432 22.064C143.104 21.824 143.784 21.424 144.472 20.864L147.136 24.2C146.176 24.888 145.064 25.416 143.8 25.784C142.536 26.152 141.296 26.336 140.08 26.336ZM142.936 23.576V17.24H147.136V24.2L142.936 23.576ZM159.101 26.336C157.757 26.336 156.517 26.12 155.381 25.688C154.245 25.256 153.253 24.648 152.405 23.864C151.573 23.064 150.925 22.136 150.461 21.08C149.997 20.024 149.765 18.864 149.765 17.6C149.765 16.336 149.997 15.176 150.461 14.12C150.925 13.064 151.573 12.144 152.405 11.36C153.253 10.56 154.245 9.944 155.381 9.512C156.517 9.08 157.757 8.864 159.101 8.864C160.461 8.864 161.701 9.08 162.821 9.512C163.957 9.944 164.941 10.56 165.773 11.36C166.605 12.144 167.253 13.064 167.717 14.12C168.197 15.176 168.437 16.336 168.437 17.6C168.437 18.864 168.197 20.032 167.717 21.104C167.253 22.16 166.605 23.08 165.773 23.864C164.941 24.648 163.957 25.256 162.821 25.688C161.701 26.12 160.461 26.336 159.101 26.336ZM159.101 22.4C159.741 22.4 160.333 22.288 160.877 22.064C161.437 21.84 161.917 21.52 162.317 21.104C162.733 20.672 163.053 20.16 163.277 19.568C163.517 18.976 163.637 18.32 163.637 17.6C163.637 16.864 163.517 16.208 163.277 15.632C163.053 15.04 162.733 14.536 162.317 14.12C161.917 13.688 161.437 13.36 160.877 13.136C160.333 12.912 159.741 12.8 159.101 12.8C158.461 12.8 157.861 12.912 157.301 13.136C156.757 13.36 156.277 13.688 155.861 14.12C155.461 14.536 155.141 15.04 154.901 15.632C154.677 16.208 154.565 16.864 154.565 17.6C154.565 18.32 154.677 18.976 154.901 19.568C155.141 20.16 155.461 20.672 155.861 21.104C156.277 21.52 156.757 21.84 157.301 22.064C157.861 22.288 158.461 22.4 159.101 22.4Z" fill="#333333"/>
<path fill-rule="evenodd" clip-rule="evenodd" d="M124 18C124 20.8737 123.401 23.5901 122.337 26H109C111.463 22.2281 114 17.6606 114 13C114 7.00236 109.938 1.95335 104.416 0.453392C105.568 0.156712 106.768 0 108 0C116.837 0 124 8.05888 124 18ZM110 13C110 8.02944 105.971 4 101 4C94.3493 4 92 12.5071 92 18C92 27.9411 99.1634 36 108 36C112.739 36 116.996 33.6825 119.926 30H101C101.352 29.5514 101.72 29.0891 102.099 28.6142C105.616 24.2012 110 18.6997 110 13Z" fill="#7859CF"/>
<path d="M13.6541 26V9.2H21.3341C22.8701 9.2 24.1901 9.448 25.2941 9.944C26.4141 10.44 27.2781 11.16 27.8861 12.104C28.4941 13.032 28.7981 14.136 28.7981 15.416C28.7981 16.68 28.4941 17.776 27.8861 18.704C27.2781 19.616 26.4141 20.32 25.2941 20.816C24.1901 21.296 22.8701 21.536 21.3341 21.536H16.2941L18.4061 19.544V26H13.6541ZM24.0461 26L19.8701 19.88H24.9341L29.1341 26H24.0461ZM18.4061 20.048L16.2941 17.864H21.0461C22.0381 17.864 22.7741 17.648 23.2541 17.216C23.7501 16.784 23.9981 16.184 23.9981 15.416C23.9981 14.632 23.7501 14.024 23.2541 13.592C22.7741 13.16 22.0381 12.944 21.0461 12.944H16.2941L18.4061 10.76V20.048ZM36.2677 15.704H44.0677V19.256H36.2677V15.704ZM36.6037 22.328H45.3877V26H31.8997V9.2H45.0757V12.872H36.6037V22.328ZM46.4887 26L53.9047 9.2H58.5847L66.0247 26H61.0807L55.2727 11.528H57.1447L51.3367 26H46.4887ZM50.5447 22.736L51.7687 19.232H59.9767L61.2007 22.736H50.5447ZM67.8519 26V9.2H75.7959C77.6519 9.2 79.2839 9.544 80.6919 10.232C82.0999 10.92 83.1959 11.888 83.9799 13.136C84.7799 14.384 85.1799 15.872 85.1799 17.6C85.1799 19.312 84.7799 20.8 83.9799 22.064C83.1959 23.312 82.0999 24.28 80.6919 24.968C79.2839 25.656 77.6519 26 75.7959 26H67.8519ZM72.6039 22.208H75.6039C76.5639 22.208 77.3959 22.032 78.0999 21.68C78.8199 21.312 79.3799 20.784 79.7799 20.096C80.1799 19.392 80.3799 18.56 80.3799 17.6C80.3799 16.624 80.1799 15.792 79.7799 15.104C79.3799 14.416 78.8199 13.896 78.0999 13.544C77.3959 13.176 76.5639 12.992 75.6039 12.992H72.6039V22.208Z" fill="#333333"/>
</svg>
